# xmcd CD database file
# Copyright (C) 1993-1998 Ti Kan
#
# Track frame offsets:
#    200
#    16197
#    32370
#    46975
#    56777
#    74657
#    85440
#    97925
#    114080
#    127760
#
# Disc length: 1929 seconds
#
# Revision: 1
# Processed by: cddbd v1.4PL0 Copyright (c) Steve Scherf et al.
# Submitted via: Gronk 1.4
#
DISCID=7507870a
DTITLE=Patricia Conroy - 
DTITLE=Blue Angel
DYEAR=1900
DGENRE=country
TTITLE0=This Time
TTITLE1=Blue Angel
TTITLE2=How Many Horses
TTITLE3=Dissapointed By You
TTITLE4=Over and Done
TTITLE5=Why I'm Walkin'
TTITLE6=Piece By Piece
TTITLE7=Take Me With You
TTITLE8=Don't Come To Me
TTITLE9=Walk Away
EXTD=
EXTT0=
EXTT1=
EXTT2=
EXTT3=
EXTT4=
EXTT5=
EXTT6=
EXTT7=
EXTT8=
EXTT9=
PLAYORDER=
